<svg version="1.0" xmlns="http://www.w3.org/2000/svg"
 width="44.000000pt" height="41.000000pt" viewBox="0 0 44.000000 41.000000"
 preserveAspectRatio="xMidYMid meet">
 
<g transform="translate(0.000000,41.000000) scale(0.100000,-0.100000)"
fill="#7c5dfa" stroke="none">
<path d="M77 362 c-39 -40 -67 -109 -67 -164 0 -40 32 -99 74 -136 104 -91
270 -54 327 73 23 49 24 89 4 146 -15 41 -78 119 -97 119 -5 0 -27 -38 -50
-85 -23 -47 -45 -85 -48 -85 -3 0 -25 38 -48 85 -23 47 -45 85 -50 85 -4 0
-25 -17 -45 -38z"/>
</g>
</svg>
